<svg xmlns="http://www.w3.org/2000/svg" xmlns:xlink="http://www.w3.org/1999/xlink" width="50" zoomAndPan="magnify" viewBox="0 0 37.5 37.499999" height="50" preserveAspectRatio="xMidYMid meet" version="1.0"><defs><clipPath id="a0c268bf9c"><path d="M 0.433594 5.011719 L 37.007812 5.011719 L 37.007812 32.761719 L 0.433594 32.761719 Z M 0.433594 5.011719 " clip-rule="nonzero"/></clipPath></defs><g clip-path="url(#a0c268bf9c)"><path fill="#ffffff" d="M 37.179688 7.324219 C 37.179688 7.628906 37.121094 7.925781 37.003906 8.207031 C 36.886719 8.492188 36.722656 8.742188 36.503906 8.960938 C 36.289062 9.175781 36.042969 9.34375 35.761719 9.460938 C 35.480469 9.578125 35.1875 9.636719 34.882812 9.636719 L 2.730469 9.636719 C 2.429688 9.636719 2.136719 9.578125 1.851562 9.460938 C 1.570312 9.34375 1.324219 9.175781 1.109375 8.960938 C 0.894531 8.742188 0.726562 8.492188 0.609375 8.207031 C 0.496094 7.925781 0.4375 7.628906 0.4375 7.324219 C 0.4375 7.015625 0.496094 6.722656 0.609375 6.4375 C 0.726562 6.15625 0.894531 5.90625 1.109375 5.6875 C 1.324219 5.472656 1.570312 5.304688 1.851562 5.1875 C 2.136719 5.070312 2.429688 5.011719 2.730469 5.011719 L 34.882812 5.011719 C 35.1875 5.011719 35.480469 5.070312 35.761719 5.1875 C 36.042969 5.304688 36.289062 5.472656 36.503906 5.6875 C 36.722656 5.90625 36.886719 6.15625 37.003906 6.4375 C 37.121094 6.722656 37.179688 7.015625 37.179688 7.324219 Z M 34.882812 16.574219 L 2.730469 16.574219 C 2.429688 16.574219 2.136719 16.632812 1.851562 16.75 C 1.570312 16.867188 1.324219 17.035156 1.109375 17.25 C 0.894531 17.46875 0.726562 17.71875 0.609375 18 C 0.496094 18.285156 0.4375 18.578125 0.4375 18.886719 C 0.4375 19.191406 0.496094 19.488281 0.609375 19.769531 C 0.726562 20.054688 0.894531 20.304688 1.109375 20.523438 C 1.324219 20.738281 1.570312 20.90625 1.851562 21.023438 C 2.136719 21.140625 2.429688 21.199219 2.730469 21.199219 L 34.882812 21.199219 C 35.1875 21.199219 35.480469 21.140625 35.761719 21.023438 C 36.042969 20.90625 36.289062 20.738281 36.503906 20.523438 C 36.722656 20.304688 36.886719 20.054688 37.003906 19.769531 C 37.121094 19.488281 37.179688 19.191406 37.179688 18.886719 C 37.179688 18.578125 37.121094 18.285156 37.003906 18 C 36.886719 17.71875 36.722656 17.46875 36.503906 17.25 C 36.289062 17.035156 36.042969 16.867188 35.761719 16.75 C 35.480469 16.632812 35.1875 16.574219 34.882812 16.574219 Z M 34.882812 28.136719 L 2.730469 28.136719 C 2.429688 28.136719 2.136719 28.195312 1.851562 28.3125 C 1.570312 28.429688 1.324219 28.597656 1.109375 28.8125 C 0.894531 29.03125 0.726562 29.28125 0.609375 29.5625 C 0.496094 29.847656 0.4375 30.140625 0.4375 30.449219 C 0.4375 30.753906 0.496094 31.050781 0.609375 31.332031 C 0.726562 31.617188 0.894531 31.867188 1.109375 32.085938 C 1.324219 32.300781 1.570312 32.46875 1.851562 32.585938 C 2.136719 32.703125 2.429688 32.761719 2.730469 32.761719 L 34.882812 32.761719 C 35.1875 32.761719 35.480469 32.703125 35.761719 32.585938 C 36.042969 32.46875 36.289062 32.300781 36.503906 32.085938 C 36.722656 31.867188 36.886719 31.617188 37.003906 31.332031 C 37.121094 31.050781 37.179688 30.753906 37.179688 30.449219 C 37.179688 30.140625 37.121094 29.847656 37.003906 29.5625 C 36.886719 29.28125 36.722656 29.03125 36.503906 28.8125 C 36.289062 28.597656 36.042969 28.429688 35.761719 28.3125 C 35.480469 28.195312 35.1875 28.136719 34.882812 28.136719 Z M 34.882812 28.136719 " fill-opacity="1" fill-rule="nonzero"/></g></svg>